<svg width="1273" height="431" viewBox="0 0 1273 431" fill="none" xmlns="http://www.w3.org/2000/svg">
<path d="M6.21717 179.178C9.6499 179.178 12.4329 176.395 12.4329 172.962V140.638C12.4329 120.347 17.8066 100.385 27.973 82.9085C37.8419 65.9438 51.9714 51.6626 68.8367 41.6089C71.7854 39.8511 72.7509 36.0355 70.9931 33.0867C69.2353 30.1388 65.4197 29.1717 62.471 30.9311C43.799 42.0622 28.1536 57.8741 17.2273 76.658C5.95777 96.0303 0.00146484 118.154 0.00146484 140.639V172.963C0.00146484 176.395 2.78444 179.178 6.21717 179.178V179.178Z" fill="#66BBFF"/>
<path d="M218.897 163.404C215.464 163.404 212.681 166.187 212.681 169.62V192.219C212.681 205.374 221.046 217.067 233.494 221.317L247.056 225.947C247.722 226.174 248.399 226.282 249.065 226.282C251.651 226.282 254.065 224.655 254.947 222.072C256.056 218.824 254.322 215.291 251.073 214.182L237.511 209.551C230.096 207.02 225.113 200.055 225.113 192.218V169.619C225.112 166.187 222.329 163.404 218.897 163.404V163.404Z" fill="#66BBFF"/>
<path d="M90.7607 98.2004C92.0718 98.2004 93.3929 97.7869 94.5175 96.9332C104.13 89.6285 115.584 85.7673 127.641 85.7673C134.378 85.7673 140.983 86.9939 147.271 89.4131C150.474 90.6454 154.072 89.0468 155.305 85.8436C156.537 82.6396 154.939 79.0428 151.735 77.8104C144.017 74.841 135.91 73.3359 127.641 73.3359C112.844 73.3359 98.7889 78.0731 86.9957 87.0362C84.2624 89.1131 83.7312 93.0124 85.8081 95.7456C87.0305 97.3543 88.8852 98.2004 90.7607 98.2004V98.2004Z" fill="#66BBFF"/>
<path d="M79.0696 115.158C80.67 112.12 79.5056 108.361 76.4682 106.761C73.4316 105.161 69.6723 106.325 68.0712 109.362C63.0124 118.962 60.3372 129.778 60.3372 140.639V172.963C60.3372 187.52 64.9318 201.389 73.6247 213.068C74.8446 214.708 76.7184 215.573 78.6155 215.573C79.9059 215.573 81.207 215.172 82.3217 214.343C85.0757 212.293 85.6467 208.4 83.5972 205.645C76.5129 196.127 72.7686 184.825 72.7686 172.962V140.638C72.7694 131.663 74.8894 123.09 79.0696 115.158V115.158Z" fill="#66BBFF"/>
<path d="M347.696 227.141C344.288 226.722 341.187 229.142 340.766 232.549C334.343 284.593 289.92 323.84 237.434 323.84C209.52 323.84 184.139 312.797 165.423 294.851C172.059 292.797 178.52 290.216 184.718 287.105C185.011 286.957 185.322 286.908 185.593 286.963L202.867 290.544C206.227 291.241 209.518 289.082 210.215 285.72C210.912 282.359 208.752 279.069 205.391 278.372L188.118 274.791C185.116 274.17 181.927 274.596 179.14 275.996C171.798 279.682 164.052 282.571 156.066 284.605C152.119 279.667 148.612 274.363 145.604 268.752C160.356 265.989 174.315 259.836 186.386 250.691C188.744 248.904 191.782 248.304 194.723 249.044L232.88 258.652C236.207 259.49 239.587 257.471 240.425 254.142C241.263 250.813 239.244 247.435 235.915 246.597L197.758 236.989C191.141 235.322 184.259 236.706 178.879 240.782C167.514 249.393 154.234 254.966 140.241 257.057C138.108 251.524 136.434 245.764 135.268 239.824C150.622 238.091 164.837 231.166 175.784 219.953C188.139 207.297 194.943 190.609 194.943 172.963V140.639C194.943 135.505 194.36 130.423 193.212 125.468C198.483 122.985 203.994 120.93 209.701 119.351C211.668 126.679 212.68 134.237 212.68 141.895V142.105C212.68 145.538 215.463 148.321 218.896 148.321C222.329 148.321 225.112 145.538 225.112 142.105V141.895C225.112 133.364 224.014 124.939 221.875 116.758C226.952 115.994 232.148 115.595 237.435 115.595C238.327 115.595 239.217 115.609 240.106 115.631C241.921 123.806 242.849 132.196 242.849 140.639V172.963C242.849 176.396 245.632 179.179 249.065 179.179C252.497 179.179 255.28 176.396 255.28 172.963V140.639C255.28 132.602 254.515 124.606 253.023 116.765C298.775 123.649 335.325 160.374 340.842 207.543C341.241 210.953 344.336 213.398 347.738 212.995C351.147 212.596 353.589 209.508 353.189 206.099C346.325 147.417 296.562 103.164 237.435 103.164C173.168 103.164 120.882 155.45 120.882 219.718C120.882 283.986 173.168 336.271 237.435 336.271C296.188 336.271 345.915 292.335 353.105 234.071C353.524 230.664 351.103 227.561 347.696 227.141V227.141ZM182.512 140.638V172.962C182.512 187.344 176.963 200.948 166.888 211.268C157.899 220.475 146.213 226.134 133.602 227.499C133.412 224.929 133.312 222.335 133.312 219.717C133.312 216.296 133.483 212.915 133.807 209.578C151.48 206.634 164.776 191.308 164.776 172.961V145.215C169.951 140.167 175.647 135.649 181.778 131.755C182.259 134.68 182.512 137.646 182.512 140.638V140.638ZM135.987 196.216C139.067 182.919 144.703 170.591 152.343 159.777V172.962C152.343 183.649 145.563 192.791 135.987 196.216V196.216Z" fill="#66BBFF"/>
<path d="M418.116 367.102L355.02 304.006C372.095 280.252 382.167 251.14 382.167 219.718C382.167 139.912 317.241 74.9863 237.435 74.9863C237.31 74.9863 237.186 74.9905 237.061 74.9913C213.989 36.6636 172.404 13 127.642 13C114.47 13 101.464 15.0155 88.9825 18.9911C85.7114 20.0329 83.9047 23.5294 84.9456 26.7997C85.9874 30.0708 89.4855 31.8767 92.7542 30.8366C104.014 27.2497 115.751 25.4322 127.641 25.4322C165.782 25.4322 201.363 44.4805 222.753 75.7273C215.952 76.416 209.292 77.5862 202.8 79.1865C183.937 56.0541 155.491 42.6613 125.89 43.1843C100.259 43.6393 76.2113 53.9889 58.1741 72.3277C40.1154 90.6889 30.1695 114.949 30.1695 140.641V192.221C30.1695 200.058 25.187 207.024 17.7712 209.556L4.20938 214.185C0.960638 215.294 -0.773958 218.827 0.334924 222.076C1.21673 224.66 3.63091 226.286 6.21664 226.285C6.88213 226.285 7.56006 226.177 8.22473 225.95L21.7866 221.321C34.2362 217.072 42.6009 205.378 42.6009 192.222V140.642C42.6009 118.232 51.2788 97.067 67.0369 81.0454C82.7759 65.0429 103.755 56.011 126.109 55.6149C150.172 55.1674 173.356 65.3255 189.727 83.0767C173.456 88.7744 158.497 97.2916 145.454 108.055C140.02 105.071 133.948 103.506 127.64 103.506C107.164 103.506 90.5058 120.165 90.5058 140.641V149.489C90.5058 152.921 93.2887 155.704 96.7215 155.704C100.154 155.704 102.937 152.921 102.937 149.489V140.641C102.937 127.019 114.019 115.938 127.64 115.938C130.313 115.938 132.921 116.361 135.396 117.178C120.028 132.471 108.073 151.187 100.771 172.068C99.5111 171.104 97.885 170.617 96.1877 170.839C92.784 171.283 90.3848 174.403 90.829 177.807C91.4555 182.609 93.0567 187.285 95.475 191.489C93.6617 200.622 92.7028 210.06 92.7028 219.719C92.7028 230.817 93.9617 241.625 96.3386 252.012C89.5908 249.332 83.2027 245.809 77.2812 241.44C71.2636 237.002 63.6705 235.399 56.4478 237.045L14.6675 246.565C11.3201 247.327 9.22587 250.659 9.98833 254.006C10.7508 257.353 14.0808 259.449 17.4298 258.685L59.2093 249.165C62.9022 248.325 66.7982 249.155 69.9011 251.444C79.1973 258.302 89.4806 263.388 100.494 266.584C102.878 273.531 105.78 280.238 109.148 286.665C97.7392 284.826 86.7357 281.292 76.3248 276.089C73.3073 274.581 69.8787 274.212 66.6722 275.053L42.5876 281.352C39.2668 282.22 37.2786 285.617 38.1471 288.938C39.0157 292.259 42.4103 294.248 45.7336 293.379L69.8182 287.08C70.1091 287.003 70.4464 287.05 70.768 287.21C85.331 294.489 100.935 298.834 117.171 300.155C121.482 306.58 126.298 312.638 131.555 318.282C130.249 318.316 128.944 318.34 127.64 318.34C110.447 318.34 93.5962 315.344 77.5547 309.437C74.3325 308.249 70.7597 309.9 69.5737 313.122C68.3878 316.343 70.0378 319.917 73.2584 321.103C90.6798 327.518 108.977 330.771 127.64 330.771C133.01 330.771 138.41 330.479 143.741 329.936C150.159 335.4 157.058 340.314 164.365 344.605C137.922 350.248 110.142 349.72 83.9585 342.989C82.8439 342.474 81.5659 342.284 80.2672 342.515C76.8876 343.119 74.6366 346.347 75.2392 349.726L75.2574 349.83C75.6825 352.213 77.4519 354.133 79.7932 354.749C95.3822 358.856 111.48 360.939 127.639 360.939C143.798 360.939 159.896 358.856 175.485 354.749C176.994 354.352 178.259 353.409 179.086 352.154C196.944 360.052 216.683 364.45 237.433 364.45C268.855 364.45 297.967 354.379 321.722 337.302L330.011 345.592C331.224 346.805 332.816 347.412 334.406 347.412C335.996 347.412 337.588 346.806 338.801 345.592C341.228 343.164 341.228 339.228 338.801 336.802L331.564 329.565C337.194 324.734 342.448 319.479 347.279 313.85L409.323 375.894C413.656 380.227 413.656 387.277 409.323 391.609C404.991 395.941 397.941 395.942 393.608 391.609L357.532 355.533C355.105 353.106 351.169 353.106 348.743 355.533C346.315 357.961 346.315 361.897 348.743 364.323L384.819 400.399C389.408 404.989 395.438 407.284 401.466 407.284C407.494 407.284 413.524 404.989 418.114 400.399C427.295 391.217 427.295 376.281 418.116 367.102V367.102ZM237.435 352.017C164.484 352.017 105.135 292.668 105.135 219.717C105.135 146.766 164.484 87.4169 237.435 87.4169C310.386 87.4169 369.735 146.766 369.735 219.717C369.735 292.668 310.386 352.017 237.435 352.017V352.017Z" fill="#66BBFF"/>
<path d="M675.4 273H528.75V37.1H674V80.15H583V133.7H664.2V176.4H583V229.95H675.4V273ZM863.681 273H722.631V37.1H776.531V225.75H863.681V273ZM978.229 196.7H950.929V273H897.029V37.1H978.229C1004.36 37.1 1025.48 44.45 1041.58 59.15C1057.91 73.85 1066.08 92.5167 1066.08 115.15C1066.08 141.05 1057.56 161.117 1040.53 175.35C1023.73 189.583 1002.96 196.7 978.229 196.7ZM971.929 80.15H950.929V154H968.779C997.246 154 1011.48 141.05 1011.48 115.15C1011.48 91.8167 998.296 80.15 971.929 80.15ZM1244.4 204.4C1244.4 225.633 1236.58 242.9 1220.95 256.2C1205.31 269.267 1184.55 275.8 1158.65 275.8C1130.88 275.8 1108.25 270.9 1090.75 261.1V206.85C1111.98 222.25 1134.61 229.95 1158.65 229.95C1166.81 229.95 1173.58 227.85 1178.95 223.65C1184.31 219.217 1187 213.5 1187 206.5C1187 204.167 1186.65 201.95 1185.95 199.85C1185.25 197.75 1183.96 195.767 1182.1 193.9C1180.23 192.033 1178.36 190.517 1176.5 189.35C1174.86 187.95 1172.3 186.433 1168.8 184.8C1165.53 182.933 1162.73 181.417 1160.4 180.25C1158.06 179.083 1154.56 177.45 1149.9 175.35C1145.46 173.25 1141.85 171.617 1139.05 170.45C1123.88 163.45 1111.63 154.817 1102.3 144.55C1093.2 134.283 1088.65 120.633 1088.65 103.6C1088.65 83.3 1096.11 66.9667 1111.05 54.6C1125.98 42 1146.63 35.7 1173 35.7C1196.56 35.7 1216.86 39.6667 1233.9 47.6V98C1215 87.0333 1195.4 81.55 1175.1 81.55C1166 81.55 1159 83.4167 1154.1 87.15C1149.43 90.8833 1147.1 95.6667 1147.1 101.5C1147.1 107.333 1150.01 112.583 1155.85 117.25C1161.68 121.683 1170.43 126.467 1182.1 131.6C1189.33 134.867 1195.28 137.783 1199.95 140.35C1204.85 142.683 1210.33 146.067 1216.4 150.5C1222.7 154.7 1227.6 159.25 1231.1 164.15C1234.83 168.817 1237.98 174.65 1240.55 181.65C1243.11 188.65 1244.4 196.233 1244.4 204.4Z" fill="white"/>
<path d="M546.65 407H527.57V346.34H546.47C555.47 346.34 562.85 349.13 568.61 354.71C574.37 360.29 577.25 367.4 577.25 376.04C577.25 385.04 574.52 392.45 569.06 398.27C563.66 404.09 556.19 407 546.65 407ZM546.29 354.26H537.02V399.17H546.56C553.46 399.17 558.71 397.01 562.31 392.69C565.91 388.37 567.71 382.82 567.71 376.04C567.71 369.8 565.76 364.61 561.86 360.47C557.96 356.33 552.77 354.26 546.29 354.26ZM623.059 404.57C619.699 406.49 615.259 407.45 609.739 407.45C602.659 407.45 597.019 405.32 592.819 401.06C588.619 396.8 586.519 391.22 586.519 384.32C586.519 377 588.439 371.27 592.279 367.13C596.119 362.93 601.009 360.83 606.949 360.83C612.769 360.83 617.389 362.66 620.809 366.32C624.229 369.92 625.939 375.14 625.939 381.98C625.939 383.84 625.759 385.79 625.399 387.83H595.429C596.029 391.79 597.709 394.82 600.469 396.92C603.229 399.02 606.709 400.07 610.909 400.07C615.769 400.07 619.819 398.93 623.059 396.65V404.57ZM607.129 368.12C604.129 368.12 601.549 369.23 599.389 371.45C597.229 373.61 595.879 376.76 595.339 380.9H617.389V379.28C617.269 375.86 616.339 373.16 614.599 371.18C612.859 369.14 610.369 368.12 607.129 368.12ZM662.064 405.83C660.084 406.91 657.654 407.45 654.774 407.45C645.354 407.45 640.644 402.68 640.644 393.14V368.21H633.534V361.37H640.644V350.21H649.554V361.37H661.524V368.21H649.554V393.32C649.554 397.7 651.654 399.89 655.854 399.89C658.314 399.89 660.384 399.23 662.064 397.91V405.83ZM707.607 404.57C704.247 406.49 699.807 407.45 694.287 407.45C687.207 407.45 681.567 405.32 677.367 401.06C673.167 396.8 671.067 391.22 671.067 384.32C671.067 377 672.987 371.27 676.827 367.13C680.667 362.93 685.557 360.83 691.497 360.83C697.317 360.83 701.937 362.66 705.357 366.32C708.777 369.92 710.487 375.14 710.487 381.98C710.487 383.84 710.307 385.79 709.947 387.83H679.977C680.577 391.79 682.257 394.82 685.017 396.92C687.777 399.02 691.257 400.07 695.457 400.07C700.317 400.07 704.367 398.93 707.607 396.65V404.57ZM691.677 368.12C688.677 368.12 686.097 369.23 683.937 371.45C681.777 373.61 680.427 376.76 679.887 380.9H701.937V379.28C701.817 375.86 700.887 373.16 699.147 371.18C697.407 369.14 694.917 368.12 691.677 368.12ZM754.892 405.2C751.952 407 748.202 407.9 743.642 407.9C736.502 407.9 730.802 405.65 726.542 401.15C722.282 396.65 720.152 391.04 720.152 384.32C720.152 377.78 722.282 372.2 726.542 367.58C730.862 362.9 736.682 360.56 744.002 360.56C747.962 360.56 751.592 361.4 754.892 363.08V371.18C751.952 369.32 748.622 368.39 744.902 368.39C740.162 368.39 736.352 369.89 733.472 372.89C730.652 375.89 729.242 379.73 729.242 384.41C729.362 389.03 730.772 392.84 733.472 395.84C736.172 398.78 739.952 400.25 744.812 400.25C748.412 400.25 751.772 399.26 754.892 397.28V405.2ZM790.775 405.83C788.795 406.91 786.365 407.45 783.485 407.45C774.065 407.45 769.355 402.68 769.355 393.14V368.21H762.245V361.37H769.355V350.21H778.265V361.37H790.235V368.21H778.265V393.32C778.265 397.7 780.365 399.89 784.565 399.89C787.025 399.89 789.095 399.23 790.775 397.91V405.83ZM811.567 407H802.657V361.37H811.567V407ZM812.647 347.42C812.647 348.92 812.107 350.21 811.027 351.29C809.947 352.37 808.627 352.91 807.067 352.91C805.507 352.91 804.187 352.4 803.107 351.38C802.087 350.3 801.577 348.98 801.577 347.42C801.577 345.86 802.087 344.54 803.107 343.46C804.187 342.38 805.507 341.84 807.067 341.84C808.627 341.84 809.947 342.38 811.027 343.46C812.107 344.54 812.647 345.86 812.647 347.42ZM847.938 407H837.858L821.658 361.37H830.928L837.138 380.63C838.578 385.07 839.778 388.91 840.738 392.15C841.758 395.39 842.388 397.52 842.628 398.54L842.988 400.07C843.528 397.13 845.508 390.65 848.928 380.63L855.318 361.37H864.498L847.938 407ZM908.208 404.57C904.848 406.49 900.408 407.45 894.888 407.45C887.808 407.45 882.168 405.32 877.968 401.06C873.768 396.8 871.668 391.22 871.668 384.32C871.668 377 873.588 371.27 877.428 367.13C881.268 362.93 886.158 360.83 892.098 360.83C897.918 360.83 902.538 362.66 905.958 366.32C909.378 369.92 911.088 375.14 911.088 381.98C911.088 383.84 910.908 385.79 910.548 387.83H880.578C881.178 391.79 882.858 394.82 885.618 396.92C888.378 399.02 891.858 400.07 896.058 400.07C900.918 400.07 904.968 398.93 908.208 396.65V404.57ZM892.278 368.12C889.278 368.12 886.698 369.23 884.538 371.45C882.378 373.61 881.028 376.76 880.488 380.9H902.538V379.28C902.418 375.86 901.488 373.16 899.748 371.18C898.008 369.14 895.518 368.12 892.278 368.12ZM961.982 381.35L960.992 384.41H980.432L979.442 381.35C977.162 374.27 975.302 368.42 973.862 363.8C972.422 359.12 971.552 356.21 971.252 355.07L970.802 353.36C970.142 356.18 967.202 365.51 961.982 381.35ZM953.612 407H943.802L964.772 346.34H976.922L997.622 407H987.722L982.952 392.15H958.472L953.612 407ZM1046.87 403.13C1046.87 410.15 1044.86 415.43 1040.84 418.97C1036.88 422.57 1031.78 424.37 1025.54 424.37C1019.66 424.37 1014.71 423.38 1010.69 421.4V412.49C1014.53 415.01 1019.18 416.27 1024.64 416.27C1033.58 416.27 1038.05 411.86 1038.05 403.04V398.36C1035.11 403.28 1030.7 405.74 1024.82 405.74C1019.66 405.74 1015.25 403.85 1011.59 400.07C1007.93 396.23 1006.1 390.83 1006.1 383.87C1006.1 377.15 1007.81 371.63 1011.23 367.31C1014.65 362.93 1019.18 360.74 1024.82 360.74C1030.88 360.74 1035.29 363.32 1038.05 368.48V361.37H1046.87V403.13ZM1015.37 383.69C1015.37 388.43 1016.45 392.03 1018.61 394.49C1020.83 396.95 1023.44 398.18 1026.44 398.18C1029.56 398.18 1032.26 396.98 1034.54 394.58C1036.88 392.12 1038.05 388.7 1038.05 384.32C1038.05 378.92 1036.94 374.93 1034.72 372.35C1032.56 369.77 1029.92 368.48 1026.8 368.48C1023.26 368.48 1020.47 369.89 1018.43 372.71C1016.39 375.47 1015.37 379.13 1015.37 383.69ZM1094.53 404.57C1091.17 406.49 1086.73 407.45 1081.21 407.45C1074.13 407.45 1068.49 405.32 1064.29 401.06C1060.09 396.8 1057.99 391.22 1057.99 384.32C1057.99 377 1059.91 371.27 1063.75 367.13C1067.59 362.93 1072.48 360.83 1078.42 360.83C1084.24 360.83 1088.86 362.66 1092.28 366.32C1095.7 369.92 1097.41 375.14 1097.41 381.98C1097.41 383.84 1097.23 385.79 1096.87 387.83H1066.9C1067.5 391.79 1069.18 394.82 1071.94 396.92C1074.7 399.02 1078.18 400.07 1082.38 400.07C1087.24 400.07 1091.29 398.93 1094.53 396.65V404.57ZM1078.6 368.12C1075.6 368.12 1073.02 369.23 1070.86 371.45C1068.7 373.61 1067.35 376.76 1066.81 380.9H1088.86V379.28C1088.74 375.86 1087.81 373.16 1086.07 371.18C1084.33 369.14 1081.84 368.12 1078.6 368.12ZM1147.3 407H1138.48V378.2C1138.48 375.02 1137.67 372.59 1136.05 370.91C1134.49 369.23 1132.39 368.39 1129.75 368.39C1126.63 368.39 1123.96 369.62 1121.74 372.08C1119.52 374.48 1118.41 377.87 1118.41 382.25V407H1109.59V361.37H1118.41V369.2C1121.11 363.56 1125.85 360.74 1132.63 360.74C1137.13 360.74 1140.7 362.12 1143.34 364.88C1145.98 367.64 1147.3 371.39 1147.3 376.13V407ZM1193.18 405.2C1190.24 407 1186.49 407.9 1181.93 407.9C1174.79 407.9 1169.09 405.65 1164.83 401.15C1160.57 396.65 1158.44 391.04 1158.44 384.32C1158.44 377.78 1160.57 372.2 1164.83 367.58C1169.15 362.9 1174.97 360.56 1182.29 360.56C1186.25 360.56 1189.88 361.4 1193.18 363.08V371.18C1190.24 369.32 1186.91 368.39 1183.19 368.39C1178.45 368.39 1174.64 369.89 1171.76 372.89C1168.94 375.89 1167.53 379.73 1167.53 384.41C1167.65 389.03 1169.06 392.84 1171.76 395.84C1174.46 398.78 1178.24 400.25 1183.1 400.25C1186.7 400.25 1190.06 399.26 1193.18 397.28V405.2ZM1226.64 405.74C1222.26 417.44 1215.57 423.29 1206.57 423.29C1204.95 423.29 1203.57 423.14 1202.43 422.84V415.28C1203.39 415.52 1204.41 415.64 1205.49 415.64C1211.31 415.64 1215.39 412.43 1217.73 406.01L1199.55 361.37H1209.36L1215.03 376.22L1222.14 395.48C1222.68 393.68 1224.84 387.26 1228.62 376.22L1233.75 361.37H1243.11L1226.64 405.74Z" fill="white" fill-opacity="0.3"/>
</svg>
